<?xml version="1.0" encoding="UTF-8" standalone="no"?>
<svg
   xmlns:dc="http://purl.org/dc/elements/1.1/"
   xmlns:cc="http://creativecommons.org/ns#"
   xmlns:rdf="http://www.w3.org/1999/02/22-rdf-syntax-ns#"
   xmlns:svg="http://www.w3.org/2000/svg"
   xmlns="http://www.w3.org/2000/svg"
   viewBox="0 0 612.2795 272.39146"
   height="272.39145"
   width="612.27948"
   xml:space="preserve"
   id="svg2"
   version="1.1"><metadata
     id="metadata8"><rdf:RDF><cc:Work
         rdf:about=""><dc:format>image/svg+xml</dc:format><dc:type
           rdf:resource="http://purl.org/dc/dcmitype/StillImage" /><dc:title></dc:title></cc:Work></rdf:RDF></metadata><defs
     id="defs6"><clipPath
       id="clipPath24"
       clipPathUnits="userSpaceOnUse"><path
         id="path22"
         d="M 0,1000 H 1000 V 0 H 0 Z" /></clipPath></defs><g
     transform="matrix(1.3333333,0,0,-1.3333333,-360.52692,802.86211)"
     id="g10"><g
       transform="translate(296.9672,436.3779)"
       id="g14"><path
         id="path16"
         style="fill:#29abe2;fill-opacity:1;fill-rule:nonzero;stroke:none"
         d="m 0,0 h -20.313 v -9.233 h 18.005 v -5.695 h -18.005 v -9.592 h 20.57 v -5.694 H -26.572 V 5.694 H 0 Z" /></g><g
       id="g18"><g
         clip-path="url(#clipPath24)"
         id="g20"><g
           transform="translate(314.4081,406.1641)"
           id="g26"><path
             id="path28"
             style="fill:#29abe2;fill-opacity:1;fill-rule:nonzero;stroke:none"
             d="M 0,0 H -6.258 V 27.085 H 0 v -4.25 c 0.443,0.656 0.929,1.269 1.458,1.837 0.528,0.569 1.142,1.078 1.841,1.527 0.699,0.449 1.467,0.803 2.302,1.062 0.836,0.259 1.782,0.388 2.839,0.388 3.069,0 5.439,-0.941 7.11,-2.821 1.671,-1.882 2.507,-4.412 2.507,-7.592 V 0 h -6.259 v 15.354 c 0,2.115 -0.5,3.744 -1.5,4.887 -1,1.143 -2.416,1.714 -4.246,1.714 -1.798,0 -3.255,-0.589 -4.373,-1.766 C 0.56,19.012 0,17.365 0,15.251 Z" /></g><g
           transform="translate(363.8857,423.2969)"
           id="g30"><path
             id="path32"
             style="fill:#29abe2;fill-opacity:1;fill-rule:nonzero;stroke:none"
             d="m 0,0 c -0.426,1.06 -0.997,1.976 -1.713,2.745 -0.716,0.77 -1.551,1.359 -2.505,1.77 -0.954,0.41 -1.943,0.615 -2.965,0.615 -1.057,0 -2.054,-0.197 -2.991,-0.59 -0.938,-0.394 -1.764,-0.967 -2.48,-1.718 -0.716,-0.753 -1.279,-1.668 -1.688,-2.745 -0.408,-1.077 -0.613,-2.3 -0.613,-3.668 0,-1.333 0.205,-2.539 0.613,-3.616 0.409,-1.077 0.972,-1.992 1.688,-2.744 0.716,-0.753 1.542,-1.334 2.48,-1.744 0.937,-0.41 1.934,-0.616 2.991,-0.616 1.022,0 2.011,0.206 2.965,0.616 0.954,0.41 1.789,1 2.505,1.769 0.716,0.77 1.287,1.685 1.713,2.744 0.426,1.061 0.64,2.258 0.64,3.591 C 0.64,-2.257 0.426,-1.06 0,0 m 0.537,-17.133 v 4.514 c -0.99,-1.402 -2.226,-2.599 -3.711,-3.59 -1.484,-0.992 -3.318,-1.488 -5.501,-1.488 -1.604,0 -3.156,0.307 -4.658,0.924 -1.5,0.615 -2.831,1.53 -3.991,2.744 -1.16,1.214 -2.097,2.693 -2.814,4.437 -0.716,1.744 -1.075,3.744 -1.075,6.001 0,2.258 0.349,4.258 1.049,6.002 0.699,1.744 1.629,3.224 2.789,4.438 1.16,1.214 2.5,2.129 4.018,2.744 1.518,0.616 3.078,0.924 4.682,0.924 2.217,0 4.06,-0.48 5.527,-1.437 1.466,-0.958 2.695,-2.069 3.685,-3.334 v 14.568 h 6.258 v -37.447 z" /></g><path
           id="path34"
           style="fill:#29abe2;fill-opacity:1;fill-rule:nonzero;stroke:none"
           d="m 382.89,443.611 h 6.258 v -37.447 h -6.258 z" /><g
           transform="translate(419.8749,421.6045)"
           id="g36"><path
             id="path38"
             style="fill:#29abe2;fill-opacity:1;fill-rule:nonzero;stroke:none"
             d="M 0,0 C -0.103,0.991 -0.326,1.924 -0.667,2.796 -1.009,3.668 -1.471,4.42 -2.052,5.053 -2.634,5.686 -3.326,6.189 -4.129,6.566 -4.934,6.942 -5.848,7.13 -6.874,7.13 -8.79,7.13 -10.371,6.472 -11.619,5.155 -12.868,3.839 -13.628,2.12 -13.902,0 Z m -11.183,-9.208 c 1.402,-1.18 3.112,-1.77 5.13,-1.77 1.539,0 2.872,0.274 4.001,0.821 1.129,0.547 2.239,1.35 3.334,2.411 l 3.642,-3.232 c -1.299,-1.539 -2.846,-2.77 -4.642,-3.693 -1.795,-0.924 -3.942,-1.385 -6.438,-1.385 -1.949,0 -3.77,0.342 -5.463,1.026 -1.693,0.683 -3.164,1.641 -4.411,2.873 -1.249,1.23 -2.232,2.71 -2.95,4.437 -0.718,1.726 -1.077,3.65 -1.077,5.771 0,1.949 0.324,3.778 0.974,5.488 0.649,1.71 1.565,3.206 2.745,4.489 1.18,1.283 2.573,2.299 4.18,3.052 1.608,0.752 3.386,1.129 5.335,1.129 2.155,0 4.044,-0.394 5.669,-1.18 C 0.47,10.242 1.821,9.183 2.898,7.849 3.976,6.515 4.788,4.958 5.335,3.181 5.881,1.402 6.156,-0.462 6.156,-2.411 6.156,-2.686 6.147,-2.958 6.13,-3.231 6.112,-3.506 6.086,-3.796 6.053,-4.104 H -13.85 c 0.375,-2.223 1.265,-3.924 2.667,-5.104" /></g><g
           transform="translate(454.9613,410.4219)"
           id="g40"><path
             id="path42"
             style="fill:#29abe2;fill-opacity:1;fill-rule:nonzero;stroke:none"
             d="m 0,0 c -0.513,-1.061 -1.223,-1.941 -2.129,-2.642 -0.907,-0.702 -1.975,-1.231 -3.206,-1.59 -1.231,-0.359 -2.548,-0.539 -3.95,-0.539 -1.949,0 -3.924,0.342 -5.924,1.026 -2.001,0.683 -3.857,1.693 -5.566,3.026 l 2.77,4.207 c 1.469,-1.094 2.966,-1.924 4.488,-2.488 1.521,-0.564 2.983,-0.847 4.386,-0.847 1.334,0 2.368,0.265 3.104,0.796 0.735,0.53 1.102,1.239 1.102,2.129 v 0.103 c 0,0.512 -0.162,0.957 -0.487,1.333 -0.325,0.376 -0.77,0.71 -1.334,1.001 -0.564,0.29 -1.214,0.546 -1.949,0.769 -0.736,0.222 -1.496,0.452 -2.283,0.693 -0.992,0.307 -1.992,0.649 -3.001,1.025 -1.009,0.376 -1.915,0.863 -2.718,1.462 -0.804,0.599 -1.462,1.334 -1.975,2.206 -0.513,0.872 -0.77,1.957 -0.77,3.258 v 0.102 c 0,1.265 0.248,2.41 0.744,3.437 0.495,1.026 1.18,1.898 2.052,2.616 0.872,0.718 1.898,1.265 3.078,1.642 1.18,0.376 2.437,0.564 3.77,0.564 1.71,0 3.437,-0.274 5.181,-0.821 1.744,-0.547 3.334,-1.3 4.771,-2.257 L -2.309,15.8 c -1.299,0.786 -2.616,1.41 -3.949,1.872 -1.334,0.462 -2.565,0.692 -3.694,0.692 -1.197,0 -2.129,-0.257 -2.796,-0.769 -0.667,-0.513 -1,-1.163 -1,-1.949 v -0.103 c 0,-0.48 0.171,-0.897 0.513,-1.257 0.341,-0.359 0.796,-0.684 1.36,-0.974 0.564,-0.291 1.213,-0.565 1.949,-0.822 0.735,-0.256 1.495,-0.505 2.282,-0.743 0.992,-0.308 1.983,-0.667 2.976,-1.077 0.991,-0.41 1.889,-0.916 2.693,-1.514 C -1.172,8.558 -0.513,7.831 0,6.977 0.513,6.121 0.77,5.078 0.77,3.847 V 3.744 C 0.77,2.309 0.513,1.06 0,0" /></g><g
           transform="translate(484.2016,410.4219)"
           id="g44"><path
             id="path46"
             style="fill:#29abe2;fill-opacity:1;fill-rule:nonzero;stroke:none"
             d="m 0,0 c -0.514,-1.061 -1.224,-1.941 -2.129,-2.642 -0.907,-0.702 -1.975,-1.231 -3.206,-1.59 -1.231,-0.359 -2.548,-0.539 -3.95,-0.539 -1.95,0 -3.924,0.342 -5.925,1.026 -2.001,0.683 -3.856,1.693 -5.566,3.026 l 2.77,4.207 c 1.47,-1.094 2.966,-1.924 4.488,-2.488 1.522,-0.564 2.984,-0.847 4.387,-0.847 1.333,0 2.367,0.265 3.103,0.796 0.735,0.53 1.103,1.239 1.103,2.129 v 0.103 c 0,0.512 -0.163,0.957 -0.488,1.333 -0.325,0.376 -0.769,0.71 -1.333,1.001 -0.565,0.29 -1.214,0.546 -1.949,0.769 -0.736,0.222 -1.497,0.452 -2.283,0.693 -0.993,0.307 -1.993,0.649 -3.001,1.025 -1.009,0.376 -1.916,0.863 -2.719,1.462 -0.804,0.599 -1.462,1.334 -1.975,2.206 -0.513,0.872 -0.769,1.957 -0.769,3.258 v 0.102 c 0,1.265 0.248,2.41 0.744,3.437 0.495,1.026 1.179,1.898 2.052,2.616 0.872,0.718 1.897,1.265 3.077,1.642 1.18,0.376 2.437,0.564 3.771,0.564 1.709,0 3.437,-0.274 5.181,-0.821 1.744,-0.547 3.334,-1.3 4.77,-2.257 L -2.309,15.8 c -1.299,0.786 -2.616,1.41 -3.95,1.872 -1.334,0.462 -2.565,0.692 -3.693,0.692 -1.198,0 -2.129,-0.257 -2.796,-0.769 -0.667,-0.513 -1,-1.163 -1,-1.949 v -0.103 c 0,-0.48 0.17,-0.897 0.513,-1.257 0.341,-0.359 0.795,-0.684 1.359,-0.974 0.564,-0.291 1.213,-0.565 1.949,-0.822 0.736,-0.256 1.496,-0.505 2.283,-0.743 0.992,-0.308 1.983,-0.667 2.976,-1.077 0.991,-0.41 1.889,-0.916 2.692,-1.514 C -1.172,8.558 -0.514,7.831 0,6.977 0.513,6.121 0.77,5.078 0.77,3.847 V 3.744 C 0.77,2.309 0.513,1.06 0,0" /></g><g
           transform="translate(526.8802,436.3779)"
           id="g48"><path
             id="path50"
             style="fill:#ffffff;fill-opacity:1;fill-rule:nonzero;stroke:none"
             d="m 0,0 h -20.417 v -9.9 h 18.108 v -5.694 h -18.108 v -14.62 h -6.258 V 5.694 H 0 Z" /></g><g
           transform="translate(552.682,417.6543)"
           id="g52"><path
             id="path54"
             style="fill:#ffffff;fill-opacity:1;fill-rule:nonzero;stroke:none"
             d="m 0,0 c -0.787,0.309 -1.719,0.564 -2.796,0.77 -1.077,0.205 -2.214,0.307 -3.411,0.307 -1.949,0 -3.471,-0.376 -4.565,-1.128 -1.095,-0.753 -1.642,-1.83 -1.642,-3.231 v -0.104 c 0,-1.3 0.505,-2.291 1.514,-2.974 1.007,-0.685 2.248,-1.027 3.718,-1.027 1.027,0 1.976,0.137 2.847,0.41 0.872,0.274 1.633,0.659 2.283,1.155 0.65,0.496 1.155,1.094 1.514,1.796 C -0.18,-3.326 0,-2.548 0,-1.692 Z m -0.153,-11.49 v 3.334 c -0.924,-1.095 -2.104,-2.018 -3.54,-2.77 -1.437,-0.752 -3.181,-1.129 -5.233,-1.129 -1.3,0 -2.531,0.18 -3.693,0.539 -1.163,0.359 -2.18,0.889 -3.052,1.59 -0.872,0.7 -1.573,1.572 -2.103,2.616 -0.531,1.043 -0.795,2.248 -0.795,3.617 v 0.102 c 0,1.471 0.273,2.753 0.82,3.848 0.547,1.094 1.309,2.001 2.283,2.719 0.975,0.717 2.137,1.256 3.488,1.616 1.351,0.358 2.813,0.538 4.386,0.538 1.642,0 3.034,-0.103 4.181,-0.308 1.145,-0.205 2.248,-0.479 3.308,-0.82 v 0.666 c 0,1.881 -0.573,3.317 -1.718,4.31 -1.146,0.991 -2.795,1.487 -4.95,1.487 -1.539,0 -2.907,-0.153 -4.104,-0.462 -1.197,-0.308 -2.411,-0.718 -3.642,-1.231 l -1.693,4.976 c 1.505,0.684 3.044,1.231 4.617,1.642 1.572,0.41 3.471,0.615 5.694,0.615 4.035,0 7.028,-1 8.977,-3.001 1.949,-2 2.924,-4.814 2.924,-8.439 V -11.49 Z" /></g><g
           transform="translate(576.432,406.1641)"
           id="g56"><path
             id="path58"
             style="fill:#ffffff;fill-opacity:1;fill-rule:nonzero;stroke:none"
             d="M 0,0 H -6.258 V 27.085 H 0 V 20.98 c 0.854,2.052 2.069,3.694 3.643,4.925 1.572,1.231 3.556,1.795 5.95,1.693 V 21.032 H 9.233 C 7.865,21.032 6.618,20.809 5.489,20.365 4.36,19.92 3.386,19.253 2.565,18.364 1.744,17.475 1.111,16.355 0.667,15.005 0.223,13.653 0,12.089 0,10.311 Z" /></g><g
           transform="translate(621.8988,432.4932)"
           id="g60"><path
             id="path62"
             style="fill:#ffffff;fill-opacity:1;fill-rule:nonzero;stroke:none"
             d="m 0,0 c 1.488,0.88 3.259,1.32 5.312,1.32 2.977,0 5.303,-0.897 6.98,-2.693 1.677,-1.795 2.516,-4.353 2.516,-7.669 V -26.329 H 8.549 v 15.353 c 0,2.15 -0.477,3.788 -1.43,4.914 -0.954,1.125 -2.298,1.688 -4.034,1.688 -1.702,0 -3.089,-0.571 -4.161,-1.714 -1.072,-1.143 -1.609,-2.807 -1.609,-4.99 v -15.251 h -6.258 v 15.404 c 0,2.115 -0.477,3.737 -1.43,4.863 -0.954,1.125 -2.298,1.688 -4.034,1.688 -1.737,0 -3.133,-0.597 -4.188,-1.791 -1.055,-1.194 -1.583,-2.85 -1.583,-4.964 v -15.2 h -6.258 V 0.756 h 6.258 v -4.147 c 0.445,0.62 0.923,1.207 1.436,1.76 0.513,0.552 1.101,1.052 1.768,1.501 0.667,0.449 1.419,0.803 2.256,1.062 0.837,0.258 1.769,0.388 2.794,0.388 1.948,0 3.598,-0.44 4.947,-1.32 1.35,-0.88 2.384,-2.045 3.103,-3.494 C -2.779,-2.045 -1.488,-0.88 0,0" /></g><path
           id="path64"
           style="fill:#ffffff;fill-opacity:1;fill-rule:nonzero;stroke:none"
           d="m 648.659,433.249 h 6.258 v -27.085 h -6.258 z m -0.257,10.054 h 6.72 v -5.898 h -6.72 z" /><g
           transform="translate(673.3314,406.1641)"
           id="g66"><path
             id="path68"
             style="fill:#ffffff;fill-opacity:1;fill-rule:nonzero;stroke:none"
             d="M 0,0 H -6.258 V 27.085 H 0 v -4.25 c 0.443,0.656 0.93,1.269 1.458,1.837 0.528,0.569 1.143,1.078 1.842,1.527 0.698,0.449 1.467,0.803 2.302,1.062 0.835,0.259 1.781,0.388 2.838,0.388 3.07,0 5.44,-0.941 7.111,-2.821 1.67,-1.882 2.506,-4.412 2.506,-7.592 V 0 h -6.258 v 15.354 c 0,2.115 -0.5,3.744 -1.501,4.887 -1,1.143 -2.415,1.714 -4.246,1.714 -1.797,0 -3.254,-0.589 -4.373,-1.766 C 0.56,19.012 0,17.365 0,15.251 Z" /></g><g
           transform="translate(722.8588,424.123)"
           id="g70"><path
             id="path72"
             style="fill:#ffffff;fill-opacity:1;fill-rule:nonzero;stroke:none"
             d="m 0,0 c -0.428,0.934 -1,1.723 -1.719,2.368 -0.718,0.646 -1.564,1.147 -2.539,1.503 -0.974,0.357 -1.992,0.535 -3.052,0.535 -1.094,0 -2.103,-0.178 -3.026,-0.535 -0.924,-0.356 -1.736,-0.857 -2.436,-1.503 -0.703,-0.645 -1.249,-1.427 -1.642,-2.344 -0.394,-0.917 -0.59,-1.935 -0.59,-3.055 0,-1.121 0.205,-2.141 0.615,-3.058 0.41,-0.917 0.957,-1.707 1.642,-2.369 0.684,-0.662 1.495,-1.172 2.436,-1.528 0.941,-0.357 1.941,-0.535 3.001,-0.535 1.06,0 2.078,0.178 3.052,0.535 0.975,0.356 1.821,0.866 2.539,1.528 0.719,0.662 1.291,1.443 1.719,2.344 0.428,0.9 0.642,1.911 0.642,3.031 C 0.642,-1.962 0.428,-0.935 0,0 m 2.949,-22.935 c -2.53,-2.222 -6.121,-3.335 -10.771,-3.335 -4.515,0 -8.55,1.079 -12.107,3.233 l 2.309,4.668 c 1.435,-0.889 2.94,-1.591 4.514,-2.104 1.572,-0.512 3.283,-0.769 5.129,-0.769 2.77,0 4.89,0.705 6.361,2.113 1.47,1.409 2.206,3.487 2.206,6.236 v 2.114 c -1.128,-1.486 -2.445,-2.695 -3.949,-3.627 -1.506,-0.933 -3.37,-1.399 -5.592,-1.399 -1.609,0 -3.147,0.283 -4.617,0.847 -1.471,0.564 -2.779,1.393 -3.924,2.488 -1.147,1.094 -2.061,2.428 -2.744,4.001 -0.685,1.573 -1.027,3.368 -1.027,5.386 0,2.018 0.342,3.813 1.027,5.387 0.683,1.572 1.597,2.906 2.744,4.001 1.145,1.093 2.462,1.931 3.95,2.513 1.487,0.581 3.018,0.872 4.591,0.872 2.291,0 4.18,-0.458 5.668,-1.373 1.488,-0.915 2.762,-2.01 3.822,-3.289 v 4.098 h 6.207 v -21.545 c 0,-4.788 -1.266,-8.292 -3.797,-10.516" /></g><g
           transform="translate(575.684,531.8145)"
           id="g74"><path
             id="path76"
             style="fill:#29abe2;fill-opacity:1;fill-rule:nonzero;stroke:none"
             d="m 0,0 c 0.605,-4.367 0.657,-8.795 0.081,-13.094 -0.362,-3.662 -1.393,-7.144 -2.523,-10.528 -1.369,-3.262 -2.868,-6.458 -4.955,-9.203 -3.928,-5.588 -9.166,-10.002 -15.208,-12.916 -5.899,-2.934 -12.499,-4.509 -19.155,-4.988 -6.483,-0.544 -12.907,0.042 -18.893,1.863 -5.908,1.734 -11.358,4.983 -16.38,9.151 -4.931,4.129 -9.462,9.135 -13.703,14.578 -8.377,10.568 -15.83,22.657 -25.261,32.183 -4.59,4.594 -9.671,8.511 -15.151,10.61 -0.679,0.246 -1.333,0.562 -2.021,0.743 l -2.046,0.538 -1.012,0.263 -1.026,0.146 -2.033,0.267 c -1.347,0.122 -2.701,0.019 -4.023,0.035 -1.322,-0.124 -2.632,-0.336 -3.92,-0.524 5.222,-0.342 10.358,-1.933 14.987,-4.874 2.362,-1.436 4.556,-3.308 6.685,-5.274 1.033,-1.075 2.08,-2.116 3.07,-3.266 0.978,-1.185 1.988,-2.306 2.91,-3.59 7.73,-10.035 13.978,-22.404 22.005,-34.365 4.082,-6.099 8.736,-12.15 14.342,-17.448 2.799,-2.731 5.929,-5.151 9.214,-7.339 1.687,-1.033 3.414,-2.033 5.171,-2.96 l 2.711,-1.242 c 0.91,-0.417 1.822,-0.846 2.763,-1.136 7.572,-2.832 15.547,-3.803 23.429,-3.553 8.045,0.28 16.284,1.947 24.176,5.554 8.034,3.717 15.468,9.723 21.003,17.579 2.87,3.926 4.982,8.434 6.782,13.045 l 1.107,3.575 0.543,1.794 0.39,1.838 0.739,3.688 c 0.189,1.241 0.275,2.496 0.411,3.744 0.506,5.049 0.366,10.13 -0.356,15.107 z" /></g><g
           transform="translate(538.0355,494.0918)"
           id="g78"><path
             id="path80"
             style="fill:#ffffff;fill-opacity:1;fill-rule:nonzero;stroke:none"
             d="m 0,0 c -1.841,-0.064 -3.691,-0.157 -5.543,-0.143 -1.83,0.18 -3.686,0.221 -5.513,0.524 l -2.72,0.547 -1.359,0.284 -1.327,0.415 -2.655,0.837 c -0.884,0.279 -1.721,0.704 -2.584,1.052 -6.81,2.869 -12.886,7.563 -18.187,12.783 -10.367,10.3 -18.099,22.569 -26.344,32.695 -4.005,5.009 -8.166,9.442 -12.561,12.889 -4.339,3.37 -8.901,5.753 -13.679,6.658 -4.675,0.95 -9.511,0.717 -14.22,-0.395 -4.647,-1.133 -9.11,-3.013 -12.946,-5.923 -3.808,-2.797 -7.064,-6.56 -9.41,-11.126 -2.367,-4.486 -3.826,-9.786 -4.349,-15.302 -0.534,-5.507 -0.09,-11.268 1.232,-16.682 1.343,-5.434 3.585,-10.561 6.608,-14.811 3.051,-4.31 6.91,-7.72 11.254,-9.945 4.41,-2.303 9.315,-3.295 14.338,-3.364 2.55,-0.009 5.137,0.214 7.737,0.66 2.616,0.497 5.25,1.16 7.883,2.016 2.673,0.813 5.311,1.912 7.968,3.08 1.343,0.576 2.663,1.243 4.013,1.868 l 4.025,2.078 c -1.19,-1.027 -2.38,-2.057 -3.591,-3.039 -1.227,-0.931 -2.434,-1.907 -3.678,-2.798 -2.489,-1.724 -5.012,-3.363 -7.623,-4.748 -5.125,-2.813 -10.55,-4.69 -16.13,-5.57 -5.477,-0.71 -11.153,-0.334 -16.594,1.86 -5.324,2.085 -10.378,5.863 -14.464,11.008 -8.064,10.021 -12.323,25.112 -11.3,39.675 0.484,7.299 2.343,14.559 5.413,20.818 3.12,6.336 7.49,11.536 12.352,15.272 2.473,1.892 5.073,3.45 7.739,4.662 2.695,1.225 5.426,2.24 8.231,2.883 5.692,1.289 11.706,1.656 17.688,0.262 0.762,-0.121 1.504,-0.37 2.249,-0.613 l 2.244,-0.729 c 1.474,-0.589 2.939,-1.26 4.385,-1.971 2.858,-1.575 5.637,-3.422 8.169,-5.646 5.208,-4.411 9.677,-9.826 13.709,-15.506 8.259,-11.597 15.007,-24.287 23.771,-35.088 2.197,-2.79 4.596,-5.334 7.123,-7.773 2.611,-2.323 5.345,-4.581 8.338,-6.399 C -14.284,3.45 -7.345,1.031 0,0" /></g><g
           transform="translate(577.9027,563.1758)"
           id="g82"><path
             id="path84"
             style="fill:#29abe2;fill-opacity:1;fill-rule:nonzero;stroke:none"
             d="m 0,0 -17.093,-40.212 43.024,4.097 z" /></g><g
           transform="translate(602.4935,543.4814)"
           id="g86"><path
             id="path88"
             style="fill:#29abe2;fill-opacity:1;fill-rule:nonzero;stroke:none"
             d="m 0,0 c -2.677,2.719 -5.152,5.554 -7.622,8.362 -2.409,2.822 -4.788,5.636 -7.07,8.494 -2.318,2.801 -4.481,5.695 -6.696,8.519 l -6.358,8.532 4.068,0.697 c -1.467,-3.46 -2.945,-6.898 -4.475,-10.298 -1.562,-3.369 -3.035,-6.759 -4.661,-10.064 -1.564,-3.314 -3.205,-6.577 -4.855,-9.815 -1.688,-3.202 -3.355,-6.396 -5.201,-9.485 0.93,3.514 2.052,6.951 3.162,10.405 1.161,3.445 2.344,6.894 3.613,10.318 1.221,3.461 2.604,6.867 3.911,10.32 1.351,3.451 2.764,6.892 4.201,10.339 l 1.687,4.051 2.379,-3.341 6.212,-8.723 c 2.024,-2.999 4.127,-5.962 6.1,-9.054 2.035,-3.07 3.999,-6.219 5.958,-9.398 C -3.721,6.63 -1.773,3.392 0,0" /></g><g
           transform="translate(600.6332,562.5596)"
           id="g90"><path
             id="path92"
             style="fill:#29abe2;fill-opacity:1;fill-rule:nonzero;stroke:none"
             d="m 0,0 c -2.664,2.642 -5.126,5.405 -7.584,8.142 -2.396,2.752 -4.764,5.497 -7.034,8.288 -2.306,2.733 -4.458,5.563 -6.662,8.322 l -6.327,8.347 4.048,0.8 c -1.46,-3.49 -2.931,-6.959 -4.454,-10.39 -1.553,-3.402 -3.019,-6.821 -4.637,-10.16 -1.557,-3.348 -3.19,-6.645 -4.831,-9.918 -1.681,-3.24 -3.339,-6.468 -5.177,-9.599 0.926,3.53 2.042,6.987 3.147,10.463 1.156,3.467 2.332,6.938 3.596,10.388 1.214,3.484 2.591,6.918 3.893,10.396 1.343,3.478 2.749,6.947 4.178,10.424 l 1.68,4.084 2.366,-3.27 6.182,-8.541 c 2.014,-2.937 4.106,-5.839 6.069,-8.871 2.025,-3.009 3.979,-6.099 5.928,-9.218 C -3.703,6.516 -1.765,3.337 0,0" /></g></g></g></g></svg>