<?xml version="1.0" encoding="UTF-8" standalone="no"?>
<svg
   xmlns:dc="http://purl.org/dc/elements/1.1/"
   xmlns:cc="http://creativecommons.org/ns#"
   xmlns:rdf="http://www.w3.org/1999/02/22-rdf-syntax-ns#"
   xmlns:svg="http://www.w3.org/2000/svg"
   xmlns="http://www.w3.org/2000/svg"
   viewBox="0 0 276.88957 181.62377"
   height="181.62376"
   width="276.88956"
   xml:space="preserve"
   id="svg2"
   version="1.1"><metadata
     id="metadata8"><rdf:RDF><cc:Work
         rdf:about=""><dc:format>image/svg+xml</dc:format><dc:type
           rdf:resource="http://purl.org/dc/dcmitype/StillImage" /><dc:title></dc:title></cc:Work></rdf:RDF></metadata><defs
     id="defs6"><clipPath
       id="clipPath24"
       clipPathUnits="userSpaceOnUse"><path
         id="path22"
         d="M 0,1000 H 1000 V 0 H 0 Z" /></clipPath></defs><g
     transform="matrix(1.3333333,0,0,-1.3333333,-528.22203,802.76211)"
     id="g10"><g
       id="g18"><g
         clip-path="url(#clipPath24)"
         id="g20"><g
           transform="translate(454.9613,410.4219)"
           id="g40" /><g
           transform="translate(722.8588,424.123)"
           id="g70" /><g
           transform="translate(575.684,531.8145)"
           id="g74"><path
             id="path76"
             style="fill:#29abe2;fill-opacity:1;fill-rule:nonzero;stroke:none"
             d="m 0,0 c 0.605,-4.367 0.657,-8.795 0.081,-13.094 -0.362,-3.662 -1.393,-7.144 -2.523,-10.528 -1.369,-3.262 -2.868,-6.458 -4.955,-9.203 -3.928,-5.588 -9.166,-10.002 -15.208,-12.916 -5.899,-2.934 -12.499,-4.509 -19.155,-4.988 -6.483,-0.544 -12.907,0.042 -18.893,1.863 -5.908,1.734 -11.358,4.983 -16.38,9.151 -4.931,4.129 -9.462,9.135 -13.703,14.578 -8.377,10.568 -15.83,22.657 -25.261,32.183 -4.59,4.594 -9.671,8.511 -15.151,10.61 -0.679,0.246 -1.333,0.562 -2.021,0.743 l -2.046,0.538 -1.012,0.263 -1.026,0.146 -2.033,0.267 c -1.347,0.122 -2.701,0.019 -4.023,0.035 -1.322,-0.124 -2.632,-0.336 -3.92,-0.524 5.222,-0.342 10.358,-1.933 14.987,-4.874 2.362,-1.436 4.556,-3.308 6.685,-5.274 1.033,-1.075 2.08,-2.116 3.07,-3.266 0.978,-1.185 1.988,-2.306 2.91,-3.59 7.73,-10.035 13.978,-22.404 22.005,-34.365 4.082,-6.099 8.736,-12.15 14.342,-17.448 2.799,-2.731 5.929,-5.151 9.214,-7.339 1.687,-1.033 3.414,-2.033 5.171,-2.96 l 2.711,-1.242 c 0.91,-0.417 1.822,-0.846 2.763,-1.136 7.572,-2.832 15.547,-3.803 23.429,-3.553 8.045,0.28 16.284,1.947 24.176,5.554 8.034,3.717 15.468,9.723 21.003,17.579 2.87,3.926 4.982,8.434 6.782,13.045 l 1.107,3.575 0.543,1.794 0.39,1.838 0.739,3.688 c 0.189,1.241 0.275,2.496 0.411,3.744 0.506,5.049 0.366,10.13 -0.356,15.107 z" /></g><g
           transform="translate(538.0355,494.0918)"
           id="g78"><path
             id="path80"
             style="fill:#ffffff;fill-opacity:1;fill-rule:nonzero;stroke:none"
             d="m 0,0 c -1.841,-0.064 -3.691,-0.157 -5.543,-0.143 -1.83,0.18 -3.686,0.221 -5.513,0.524 l -2.72,0.547 -1.359,0.284 -1.327,0.415 -2.655,0.837 c -0.884,0.279 -1.721,0.704 -2.584,1.052 -6.81,2.869 -12.886,7.563 -18.187,12.783 -10.367,10.3 -18.099,22.569 -26.344,32.695 -4.005,5.009 -8.166,9.442 -12.561,12.889 -4.339,3.37 -8.901,5.753 -13.679,6.658 -4.675,0.95 -9.511,0.717 -14.22,-0.395 -4.647,-1.133 -9.11,-3.013 -12.946,-5.923 -3.808,-2.797 -7.064,-6.56 -9.41,-11.126 -2.367,-4.486 -3.826,-9.786 -4.349,-15.302 -0.534,-5.507 -0.09,-11.268 1.232,-16.682 1.343,-5.434 3.585,-10.561 6.608,-14.811 3.051,-4.31 6.91,-7.72 11.254,-9.945 4.41,-2.303 9.315,-3.295 14.338,-3.364 2.55,-0.009 5.137,0.214 7.737,0.66 2.616,0.497 5.25,1.16 7.883,2.016 2.673,0.813 5.311,1.912 7.968,3.08 1.343,0.576 2.663,1.243 4.013,1.868 l 4.025,2.078 c -1.19,-1.027 -2.38,-2.057 -3.591,-3.039 -1.227,-0.931 -2.434,-1.907 -3.678,-2.798 -2.489,-1.724 -5.012,-3.363 -7.623,-4.748 -5.125,-2.813 -10.55,-4.69 -16.13,-5.57 -5.477,-0.71 -11.153,-0.334 -16.594,1.86 -5.324,2.085 -10.378,5.863 -14.464,11.008 -8.064,10.021 -12.323,25.112 -11.3,39.675 0.484,7.299 2.343,14.559 5.413,20.818 3.12,6.336 7.49,11.536 12.352,15.272 2.473,1.892 5.073,3.45 7.739,4.662 2.695,1.225 5.426,2.24 8.231,2.883 5.692,1.289 11.706,1.656 17.688,0.262 0.762,-0.121 1.504,-0.37 2.249,-0.613 l 2.244,-0.729 c 1.474,-0.589 2.939,-1.26 4.385,-1.971 2.858,-1.575 5.637,-3.422 8.169,-5.646 5.208,-4.411 9.677,-9.826 13.709,-15.506 8.259,-11.597 15.007,-24.287 23.771,-35.088 2.197,-2.79 4.596,-5.334 7.123,-7.773 2.611,-2.323 5.345,-4.581 8.338,-6.399 C -14.284,3.45 -7.345,1.031 0,0" /></g><g
           transform="translate(577.9027,563.1758)"
           id="g82"><path
             id="path84"
             style="fill:#29abe2;fill-opacity:1;fill-rule:nonzero;stroke:none"
             d="m 0,0 -17.093,-40.212 43.024,4.097 z" /></g><g
           transform="translate(602.4935,543.4814)"
           id="g86"><path
             id="path88"
             style="fill:#29abe2;fill-opacity:1;fill-rule:nonzero;stroke:none"
             d="m 0,0 c -2.677,2.719 -5.152,5.554 -7.622,8.362 -2.409,2.822 -4.788,5.636 -7.07,8.494 -2.318,2.801 -4.481,5.695 -6.696,8.519 l -6.358,8.532 4.068,0.697 c -1.467,-3.46 -2.945,-6.898 -4.475,-10.298 -1.562,-3.369 -3.035,-6.759 -4.661,-10.064 -1.564,-3.314 -3.205,-6.577 -4.855,-9.815 -1.688,-3.202 -3.355,-6.396 -5.201,-9.485 0.93,3.514 2.052,6.951 3.162,10.405 1.161,3.445 2.344,6.894 3.613,10.318 1.221,3.461 2.604,6.867 3.911,10.32 1.351,3.451 2.764,6.892 4.201,10.339 l 1.687,4.051 2.379,-3.341 6.212,-8.723 c 2.024,-2.999 4.127,-5.962 6.1,-9.054 2.035,-3.07 3.999,-6.219 5.958,-9.398 C -3.721,6.63 -1.773,3.392 0,0" /></g><g
           transform="translate(600.6332,562.5596)"
           id="g90"><path
             id="path92"
             style="fill:#29abe2;fill-opacity:1;fill-rule:nonzero;stroke:none"
             d="m 0,0 c -2.664,2.642 -5.126,5.405 -7.584,8.142 -2.396,2.752 -4.764,5.497 -7.034,8.288 -2.306,2.733 -4.458,5.563 -6.662,8.322 l -6.327,8.347 4.048,0.8 c -1.46,-3.49 -2.931,-6.959 -4.454,-10.39 -1.553,-3.402 -3.019,-6.821 -4.637,-10.16 -1.557,-3.348 -3.19,-6.645 -4.831,-9.918 -1.681,-3.24 -3.339,-6.468 -5.177,-9.599 0.926,3.53 2.042,6.987 3.147,10.463 1.156,3.467 2.332,6.938 3.596,10.388 1.214,3.484 2.591,6.918 3.893,10.396 1.343,3.478 2.749,6.947 4.178,10.424 l 1.68,4.084 2.366,-3.27 6.182,-8.541 c 2.014,-2.937 4.106,-5.839 6.069,-8.871 2.025,-3.009 3.979,-6.099 5.928,-9.218 C -3.703,6.516 -1.765,3.337 0,0" /></g></g></g></g></svg>